<mxfile host="app.diagrams.net" agent="Mozilla/5.0 (X11; Linux x86_64; rv:138.0) Gecko/20100101 Firefox/138.0" version="27.0.6">
  <diagram name="Page-1" id="gpqCjPfB1ZrvT4JesGv-">
    <mxGraphModel dx="3178" dy="1729" grid="1" gridSize="10" guides="1" tooltips="1" connect="1" arrows="1" fold="1" page="1" pageScale="1" pageWidth="850" pageHeight="1100" math="0" shadow="0">
      <root>
        <mxCell id="0" />
        <mxCell id="1" parent="0" />
        <mxCell id="wxZG17dzOCj2G1feKDLw-80" value="" style="rounded=0;whiteSpace=wrap;html=1;" vertex="1" parent="1">
          <mxGeometry x="10" y="1510" width="830" height="230" as="geometry" />
        </mxCell>
        <mxCell id="wxZG17dzOCj2G1feKDLw-81" value="Hardware" style="text;html=1;align=center;verticalAlign=middle;whiteSpace=wrap;rounded=0;strokeWidth=1;fontSize=28;" vertex="1" parent="1">
          <mxGeometry x="20" y="1520" width="140" height="50" as="geometry" />
        </mxCell>
        <mxCell id="wxZG17dzOCj2G1feKDLw-78" style="edgeStyle=orthogonalEdgeStyle;rounded=0;orthogonalLoop=1;jettySize=auto;html=1;exitX=0.5;exitY=1;exitDx=0;exitDy=0;entryX=0.5;entryY=0;entryDx=0;entryDy=0;" edge="1" parent="1" source="wxZG17dzOCj2G1feKDLw-67" target="wxZG17dzOCj2G1feKDLw-71">
          <mxGeometry relative="1" as="geometry" />
        </mxCell>
        <mxCell id="wxZG17dzOCj2G1feKDLw-67" value="" style="rounded=0;whiteSpace=wrap;html=1;" vertex="1" parent="1">
          <mxGeometry x="10" y="1100" width="830" height="390" as="geometry" />
        </mxCell>
        <mxCell id="wxZG17dzOCj2G1feKDLw-68" value="API Layer" style="text;html=1;align=center;verticalAlign=middle;whiteSpace=wrap;rounded=0;strokeWidth=1;fontSize=28;" vertex="1" parent="1">
          <mxGeometry x="20" y="1110" width="140" height="50" as="geometry" />
        </mxCell>
        <mxCell id="wxZG17dzOCj2G1feKDLw-77" style="edgeStyle=orthogonalEdgeStyle;rounded=0;orthogonalLoop=1;jettySize=auto;html=1;exitX=0.5;exitY=1;exitDx=0;exitDy=0;entryX=0.5;entryY=0;entryDx=0;entryDy=0;" edge="1" parent="1" source="wxZG17dzOCj2G1feKDLw-52" target="wxZG17dzOCj2G1feKDLw-73">
          <mxGeometry relative="1" as="geometry" />
        </mxCell>
        <mxCell id="wxZG17dzOCj2G1feKDLw-52" value="" style="rounded=0;whiteSpace=wrap;html=1;" vertex="1" parent="1">
          <mxGeometry x="30" y="1350" width="320" height="120" as="geometry" />
        </mxCell>
        <mxCell id="wxZG17dzOCj2G1feKDLw-36" value="" style="rounded=0;whiteSpace=wrap;html=1;" vertex="1" parent="1">
          <mxGeometry x="10" y="240" width="830" height="840" as="geometry" />
        </mxCell>
        <mxCell id="wxZG17dzOCj2G1feKDLw-22" value="" style="rounded=0;whiteSpace=wrap;html=1;" vertex="1" parent="1">
          <mxGeometry x="290" y="760" width="420" height="100" as="geometry" />
        </mxCell>
        <mxCell id="wxZG17dzOCj2G1feKDLw-2" value="Engine Architecture" style="text;html=1;align=center;verticalAlign=middle;whiteSpace=wrap;rounded=0;strokeWidth=1;fontSize=28;" vertex="1" parent="1">
          <mxGeometry y="10" width="260" height="50" as="geometry" />
        </mxCell>
        <mxCell id="wxZG17dzOCj2G1feKDLw-32" style="edgeStyle=orthogonalEdgeStyle;rounded=0;orthogonalLoop=1;jettySize=auto;html=1;exitX=0.5;exitY=1;exitDx=0;exitDy=0;entryX=0.5;entryY=0;entryDx=0;entryDy=0;" edge="1" parent="1" source="wxZG17dzOCj2G1feKDLw-4" target="wxZG17dzOCj2G1feKDLw-5">
          <mxGeometry relative="1" as="geometry" />
        </mxCell>
        <mxCell id="wxZG17dzOCj2G1feKDLw-42" style="edgeStyle=orthogonalEdgeStyle;rounded=0;orthogonalLoop=1;jettySize=auto;html=1;exitX=0.5;exitY=1;exitDx=0;exitDy=0;" edge="1" parent="1" source="wxZG17dzOCj2G1feKDLw-4" target="wxZG17dzOCj2G1feKDLw-10">
          <mxGeometry relative="1" as="geometry" />
        </mxCell>
        <mxCell id="wxZG17dzOCj2G1feKDLw-4" value="&lt;div&gt;Scene&lt;/div&gt;" style="rounded=0;whiteSpace=wrap;html=1;fontSize=16;" vertex="1" parent="1">
          <mxGeometry x="110" y="460" width="630" height="100" as="geometry" />
        </mxCell>
        <mxCell id="wxZG17dzOCj2G1feKDLw-31" style="edgeStyle=orthogonalEdgeStyle;rounded=0;orthogonalLoop=1;jettySize=auto;html=1;exitX=1;exitY=0.5;exitDx=0;exitDy=0;entryX=0;entryY=0.5;entryDx=0;entryDy=0;" edge="1" parent="1" source="wxZG17dzOCj2G1feKDLw-5" target="wxZG17dzOCj2G1feKDLw-22">
          <mxGeometry relative="1" as="geometry" />
        </mxCell>
        <mxCell id="wxZG17dzOCj2G1feKDLw-5" value="&lt;div&gt;Objects&lt;/div&gt;" style="rounded=0;whiteSpace=wrap;html=1;fontSize=16;" vertex="1" parent="1">
          <mxGeometry x="120" y="590" width="120" height="60" as="geometry" />
        </mxCell>
        <mxCell id="wxZG17dzOCj2G1feKDLw-26" style="edgeStyle=orthogonalEdgeStyle;rounded=0;orthogonalLoop=1;jettySize=auto;html=1;exitX=0.5;exitY=1;exitDx=0;exitDy=0;entryX=0.5;entryY=0;entryDx=0;entryDy=0;" edge="1" parent="1" source="wxZG17dzOCj2G1feKDLw-8" target="wxZG17dzOCj2G1feKDLw-25">
          <mxGeometry relative="1" as="geometry" />
        </mxCell>
        <mxCell id="wxZG17dzOCj2G1feKDLw-28" style="edgeStyle=orthogonalEdgeStyle;rounded=0;orthogonalLoop=1;jettySize=auto;html=1;exitX=0.5;exitY=1;exitDx=0;exitDy=0;entryX=0.5;entryY=0;entryDx=0;entryDy=0;" edge="1" parent="1" source="wxZG17dzOCj2G1feKDLw-8" target="wxZG17dzOCj2G1feKDLw-27">
          <mxGeometry relative="1" as="geometry" />
        </mxCell>
        <mxCell id="wxZG17dzOCj2G1feKDLw-30" style="edgeStyle=orthogonalEdgeStyle;rounded=0;orthogonalLoop=1;jettySize=auto;html=1;exitX=1;exitY=0.5;exitDx=0;exitDy=0;entryX=0;entryY=0.5;entryDx=0;entryDy=0;" edge="1" parent="1" source="wxZG17dzOCj2G1feKDLw-8" target="wxZG17dzOCj2G1feKDLw-29">
          <mxGeometry relative="1" as="geometry" />
        </mxCell>
        <mxCell id="wxZG17dzOCj2G1feKDLw-48" style="edgeStyle=orthogonalEdgeStyle;rounded=0;orthogonalLoop=1;jettySize=auto;html=1;exitX=1;exitY=0.5;exitDx=0;exitDy=0;entryX=0.5;entryY=0;entryDx=0;entryDy=0;" edge="1" parent="1" source="wxZG17dzOCj2G1feKDLw-8" target="wxZG17dzOCj2G1feKDLw-45">
          <mxGeometry relative="1" as="geometry">
            <Array as="points">
              <mxPoint x="280" y="900" />
              <mxPoint x="280" y="880" />
              <mxPoint x="500" y="880" />
            </Array>
          </mxGeometry>
        </mxCell>
        <mxCell id="wxZG17dzOCj2G1feKDLw-8" value="Components" style="rounded=0;whiteSpace=wrap;html=1;fontSize=16;" vertex="1" parent="1">
          <mxGeometry x="120" y="870" width="120" height="60" as="geometry" />
        </mxCell>
        <mxCell id="wxZG17dzOCj2G1feKDLw-9" value="" style="endArrow=classic;html=1;rounded=0;exitX=0.5;exitY=1;exitDx=0;exitDy=0;entryX=0.5;entryY=0;entryDx=0;entryDy=0;" edge="1" parent="1" target="wxZG17dzOCj2G1feKDLw-8" source="wxZG17dzOCj2G1feKDLw-5">
          <mxGeometry width="50" height="50" relative="1" as="geometry">
            <mxPoint x="200" y="740" as="sourcePoint" />
            <mxPoint x="660" y="770" as="targetPoint" />
          </mxGeometry>
        </mxCell>
        <mxCell id="wxZG17dzOCj2G1feKDLw-16" style="edgeStyle=orthogonalEdgeStyle;rounded=0;orthogonalLoop=1;jettySize=auto;html=1;exitX=0.5;exitY=1;exitDx=0;exitDy=0;entryX=0.5;entryY=0;entryDx=0;entryDy=0;" edge="1" parent="1" source="wxZG17dzOCj2G1feKDLw-10" target="wxZG17dzOCj2G1feKDLw-12">
          <mxGeometry relative="1" as="geometry" />
        </mxCell>
        <mxCell id="wxZG17dzOCj2G1feKDLw-17" style="edgeStyle=orthogonalEdgeStyle;rounded=0;orthogonalLoop=1;jettySize=auto;html=1;exitX=0.5;exitY=0;exitDx=0;exitDy=0;entryX=0.5;entryY=0;entryDx=0;entryDy=0;" edge="1" parent="1" source="wxZG17dzOCj2G1feKDLw-15" target="wxZG17dzOCj2G1feKDLw-13">
          <mxGeometry relative="1" as="geometry" />
        </mxCell>
        <mxCell id="wxZG17dzOCj2G1feKDLw-10" value="&lt;div&gt;Renderer&lt;/div&gt;" style="rounded=0;whiteSpace=wrap;html=1;fontSize=16;" vertex="1" parent="1">
          <mxGeometry x="440" y="690" width="120" height="60" as="geometry" />
        </mxCell>
        <mxCell id="wxZG17dzOCj2G1feKDLw-12" value="Object2D" style="rounded=0;whiteSpace=wrap;html=1;fontSize=16;" vertex="1" parent="1">
          <mxGeometry x="300" y="790" width="120" height="60" as="geometry" />
        </mxCell>
        <mxCell id="wxZG17dzOCj2G1feKDLw-13" value="&lt;div&gt;Object3D&lt;/div&gt;" style="rounded=0;whiteSpace=wrap;html=1;fontSize=16;" vertex="1" parent="1">
          <mxGeometry x="440" y="790" width="120" height="60" as="geometry" />
        </mxCell>
        <mxCell id="wxZG17dzOCj2G1feKDLw-15" value="Custom Render Object" style="rounded=0;whiteSpace=wrap;html=1;fontSize=16;" vertex="1" parent="1">
          <mxGeometry x="580" y="790" width="120" height="60" as="geometry" />
        </mxCell>
        <mxCell id="wxZG17dzOCj2G1feKDLw-25" value="&lt;div&gt;Transform&lt;/div&gt;&lt;div&gt;(2D / 3D)&lt;/div&gt;" style="rounded=0;whiteSpace=wrap;html=1;fontSize=16;" vertex="1" parent="1">
          <mxGeometry x="30" y="1000" width="120" height="60" as="geometry" />
        </mxCell>
        <mxCell id="wxZG17dzOCj2G1feKDLw-27" value="etc." style="rounded=0;whiteSpace=wrap;html=1;fontSize=16;" vertex="1" parent="1">
          <mxGeometry x="210" y="1000" width="120" height="60" as="geometry" />
        </mxCell>
        <mxCell id="wxZG17dzOCj2G1feKDLw-29" value="Scripts" style="rounded=0;whiteSpace=wrap;html=1;fontSize=16;" vertex="1" parent="1">
          <mxGeometry x="290" y="900" width="120" height="60" as="geometry" />
        </mxCell>
        <mxCell id="wxZG17dzOCj2G1feKDLw-39" style="edgeStyle=orthogonalEdgeStyle;rounded=0;orthogonalLoop=1;jettySize=auto;html=1;exitX=0.5;exitY=1;exitDx=0;exitDy=0;entryX=0.5;entryY=0;entryDx=0;entryDy=0;" edge="1" parent="1" source="wxZG17dzOCj2G1feKDLw-35" target="wxZG17dzOCj2G1feKDLw-38">
          <mxGeometry relative="1" as="geometry" />
        </mxCell>
        <mxCell id="wxZG17dzOCj2G1feKDLw-35" value="&lt;font style=&quot;font-size: 24px;&quot;&gt;User Layer&lt;/font&gt;" style="rounded=0;whiteSpace=wrap;html=1;" vertex="1" parent="1">
          <mxGeometry x="10" y="60" width="830" height="160" as="geometry" />
        </mxCell>
        <mxCell id="wxZG17dzOCj2G1feKDLw-37" value="Engine Layer" style="text;html=1;align=center;verticalAlign=middle;whiteSpace=wrap;rounded=0;strokeWidth=1;fontSize=28;" vertex="1" parent="1">
          <mxGeometry x="20" y="250" width="170" height="50" as="geometry" />
        </mxCell>
        <mxCell id="wxZG17dzOCj2G1feKDLw-40" style="edgeStyle=orthogonalEdgeStyle;rounded=0;orthogonalLoop=1;jettySize=auto;html=1;exitX=0.5;exitY=1;exitDx=0;exitDy=0;" edge="1" parent="1" source="wxZG17dzOCj2G1feKDLw-38" target="wxZG17dzOCj2G1feKDLw-4">
          <mxGeometry relative="1" as="geometry" />
        </mxCell>
        <mxCell id="wxZG17dzOCj2G1feKDLw-38" value="Engine API" style="rounded=0;whiteSpace=wrap;html=1;fontSize=24;" vertex="1" parent="1">
          <mxGeometry x="30" y="330" width="790" height="100" as="geometry" />
        </mxCell>
        <mxCell id="wxZG17dzOCj2G1feKDLw-43" style="edgeStyle=orthogonalEdgeStyle;rounded=0;orthogonalLoop=1;jettySize=auto;html=1;exitX=0.5;exitY=1;exitDx=0;exitDy=0;entryX=0.5;entryY=0;entryDx=0;entryDy=0;" edge="1" parent="1" source="wxZG17dzOCj2G1feKDLw-41" target="wxZG17dzOCj2G1feKDLw-10">
          <mxGeometry relative="1" as="geometry" />
        </mxCell>
        <mxCell id="wxZG17dzOCj2G1feKDLw-65" style="edgeStyle=orthogonalEdgeStyle;rounded=0;orthogonalLoop=1;jettySize=auto;html=1;exitX=0.5;exitY=1;exitDx=0;exitDy=0;entryX=0.5;entryY=0;entryDx=0;entryDy=0;" edge="1" parent="1" source="wxZG17dzOCj2G1feKDLw-41" target="wxZG17dzOCj2G1feKDLw-60">
          <mxGeometry relative="1" as="geometry">
            <Array as="points">
              <mxPoint x="640" y="660" />
              <mxPoint x="770" y="660" />
              <mxPoint x="770" y="1050" />
              <mxPoint x="425" y="1050" />
            </Array>
          </mxGeometry>
        </mxCell>
        <mxCell id="wxZG17dzOCj2G1feKDLw-41" value="&lt;div&gt;Window&lt;/div&gt;" style="rounded=0;whiteSpace=wrap;html=1;fontSize=16;" vertex="1" parent="1">
          <mxGeometry x="580" y="580" width="120" height="60" as="geometry" />
        </mxCell>
        <mxCell id="wxZG17dzOCj2G1feKDLw-47" style="edgeStyle=orthogonalEdgeStyle;rounded=0;orthogonalLoop=1;jettySize=auto;html=1;exitX=0;exitY=0.5;exitDx=0;exitDy=0;entryX=1;entryY=0.5;entryDx=0;entryDy=0;" edge="1" parent="1" source="wxZG17dzOCj2G1feKDLw-44" target="wxZG17dzOCj2G1feKDLw-45">
          <mxGeometry relative="1" as="geometry" />
        </mxCell>
        <mxCell id="wxZG17dzOCj2G1feKDLw-44" value="Audio Device" style="rounded=0;whiteSpace=wrap;html=1;fontSize=16;" vertex="1" parent="1">
          <mxGeometry x="580" y="900" width="120" height="60" as="geometry" />
        </mxCell>
        <mxCell id="wxZG17dzOCj2G1feKDLw-45" value="&lt;div&gt;Audio Abstraction&lt;/div&gt;" style="rounded=0;whiteSpace=wrap;html=1;fontSize=16;" vertex="1" parent="1">
          <mxGeometry x="440" y="900" width="120" height="60" as="geometry" />
        </mxCell>
        <mxCell id="wxZG17dzOCj2G1feKDLw-50" value="&lt;div&gt;OpenGL&lt;/div&gt;" style="rounded=0;whiteSpace=wrap;html=1;fontSize=16;" vertex="1" parent="1">
          <mxGeometry x="40" y="1400" width="120" height="60" as="geometry" />
        </mxCell>
        <mxCell id="wxZG17dzOCj2G1feKDLw-51" value="Vulkan (To Do)" style="rounded=0;whiteSpace=wrap;html=1;fontSize=16;" vertex="1" parent="1">
          <mxGeometry x="220" y="1400" width="120" height="60" as="geometry" />
        </mxCell>
        <mxCell id="wxZG17dzOCj2G1feKDLw-54" value="Graphics API" style="text;html=1;align=center;verticalAlign=middle;whiteSpace=wrap;rounded=0;strokeWidth=1;fontSize=16;" vertex="1" parent="1">
          <mxGeometry x="40" y="1360" width="100" height="20" as="geometry" />
        </mxCell>
        <mxCell id="wxZG17dzOCj2G1feKDLw-79" style="edgeStyle=orthogonalEdgeStyle;rounded=0;orthogonalLoop=1;jettySize=auto;html=1;exitX=0.5;exitY=1;exitDx=0;exitDy=0;entryX=0.5;entryY=0;entryDx=0;entryDy=0;" edge="1" parent="1" source="wxZG17dzOCj2G1feKDLw-55" target="wxZG17dzOCj2G1feKDLw-74">
          <mxGeometry relative="1" as="geometry" />
        </mxCell>
        <mxCell id="wxZG17dzOCj2G1feKDLw-55" value="" style="rounded=0;whiteSpace=wrap;html=1;" vertex="1" parent="1">
          <mxGeometry x="370" y="1350" width="140" height="120" as="geometry" />
        </mxCell>
        <mxCell id="wxZG17dzOCj2G1feKDLw-56" value="OpenAL" style="rounded=0;whiteSpace=wrap;html=1;fontSize=16;" vertex="1" parent="1">
          <mxGeometry x="380" y="1400" width="120" height="60" as="geometry" />
        </mxCell>
        <mxCell id="wxZG17dzOCj2G1feKDLw-58" value="Audio API" style="text;html=1;align=center;verticalAlign=middle;whiteSpace=wrap;rounded=0;strokeWidth=1;fontSize=16;" vertex="1" parent="1">
          <mxGeometry x="380" y="1360" width="80" height="20" as="geometry" />
        </mxCell>
        <mxCell id="wxZG17dzOCj2G1feKDLw-62" style="edgeStyle=orthogonalEdgeStyle;rounded=0;orthogonalLoop=1;jettySize=auto;html=1;exitX=0.5;exitY=1;exitDx=0;exitDy=0;entryX=0.5;entryY=0;entryDx=0;entryDy=0;" edge="1" parent="1" source="wxZG17dzOCj2G1feKDLw-60" target="wxZG17dzOCj2G1feKDLw-52">
          <mxGeometry relative="1" as="geometry" />
        </mxCell>
        <mxCell id="wxZG17dzOCj2G1feKDLw-63" style="edgeStyle=orthogonalEdgeStyle;rounded=0;orthogonalLoop=1;jettySize=auto;html=1;exitX=0.5;exitY=1;exitDx=0;exitDy=0;entryX=0.5;entryY=0;entryDx=0;entryDy=0;" edge="1" parent="1" source="wxZG17dzOCj2G1feKDLw-60" target="wxZG17dzOCj2G1feKDLw-55">
          <mxGeometry relative="1" as="geometry" />
        </mxCell>
        <mxCell id="wxZG17dzOCj2G1feKDLw-60" value="&lt;font style=&quot;font-size: 24px;&quot;&gt;GL Buffers, Audio Buffers, Something Buffers, etc.&lt;/font&gt;" style="rounded=0;whiteSpace=wrap;html=1;" vertex="1" parent="1">
          <mxGeometry x="30" y="1170" width="790" height="120" as="geometry" />
        </mxCell>
        <mxCell id="wxZG17dzOCj2G1feKDLw-61" value="Memory Pool (Custom :clueless:)" style="text;html=1;align=center;verticalAlign=middle;whiteSpace=wrap;rounded=0;strokeWidth=1;fontSize=16;" vertex="1" parent="1">
          <mxGeometry x="40" y="1180" width="240" height="20" as="geometry" />
        </mxCell>
        <mxCell id="wxZG17dzOCj2G1feKDLw-69" style="edgeStyle=orthogonalEdgeStyle;rounded=0;orthogonalLoop=1;jettySize=auto;html=1;exitX=1;exitY=0.5;exitDx=0;exitDy=0;entryX=0.486;entryY=0.011;entryDx=0;entryDy=0;entryPerimeter=0;" edge="1" parent="1" source="wxZG17dzOCj2G1feKDLw-10" target="wxZG17dzOCj2G1feKDLw-60">
          <mxGeometry relative="1" as="geometry">
            <Array as="points">
              <mxPoint x="760" y="720" />
              <mxPoint x="760" y="1040" />
              <mxPoint x="414" y="1040" />
            </Array>
          </mxGeometry>
        </mxCell>
        <mxCell id="wxZG17dzOCj2G1feKDLw-70" style="edgeStyle=orthogonalEdgeStyle;rounded=0;orthogonalLoop=1;jettySize=auto;html=1;exitX=0.5;exitY=1;exitDx=0;exitDy=0;entryX=0.516;entryY=0.004;entryDx=0;entryDy=0;entryPerimeter=0;" edge="1" parent="1" source="wxZG17dzOCj2G1feKDLw-44" target="wxZG17dzOCj2G1feKDLw-60">
          <mxGeometry relative="1" as="geometry">
            <Array as="points">
              <mxPoint x="640" y="1060" />
              <mxPoint x="438" y="1060" />
            </Array>
          </mxGeometry>
        </mxCell>
        <mxCell id="wxZG17dzOCj2G1feKDLw-71" value="&lt;div&gt;&lt;font style=&quot;font-size: 24px;&quot;&gt;CPU&lt;/font&gt;&lt;/div&gt;&lt;div&gt;&lt;font style=&quot;font-size: 24px;&quot;&gt;(Multithreaded)&lt;/font&gt;&lt;/div&gt;&lt;div&gt;&lt;font style=&quot;font-size: 24px;&quot;&gt;+ Memory&lt;/font&gt;&lt;/div&gt;" style="rounded=0;whiteSpace=wrap;html=1;" vertex="1" parent="1">
          <mxGeometry x="310" y="1600" width="230" height="120" as="geometry" />
        </mxCell>
        <mxCell id="wxZG17dzOCj2G1feKDLw-73" value="&lt;div&gt;&lt;font style=&quot;font-size: 24px;&quot;&gt;GPU&lt;/font&gt;&lt;/div&gt;" style="rounded=0;whiteSpace=wrap;html=1;" vertex="1" parent="1">
          <mxGeometry x="50" y="1600" width="230" height="120" as="geometry" />
        </mxCell>
        <mxCell id="wxZG17dzOCj2G1feKDLw-74" value="&lt;font style=&quot;font-size: 24px;&quot;&gt;Sound Card&lt;/font&gt;" style="rounded=0;whiteSpace=wrap;html=1;" vertex="1" parent="1">
          <mxGeometry x="570" y="1600" width="230" height="120" as="geometry" />
        </mxCell>
      </root>
    </mxGraphModel>
  </diagram>
</mxfile>
